<svg width="119" height="119" viewBox="0 0 119 119" fill="none" xmlns="http://www.w3.org/2000/svg">
<path d="M42.9609 78.0172C44.1723 78.875 45.6213 79.3336 47.1057 79.3282V79.3083C48.5054 79.3113 49.8749 78.9032 51.045 78.1347C52.2147 77.3662 53.133 76.2709 53.6853 74.9847L56.7248 65.7423C57.4269 63.6484 58.6065 61.7469 60.1698 60.1875C61.7337 58.6281 63.6387 57.454 65.7341 56.7578L74.55 53.8919C75.9701 53.3931 77.1968 52.459 78.055 51.2228C78.9138 49.9862 79.3606 48.5107 79.3318 47.0059C79.3036 45.501 78.8008 44.0434 77.8964 42.8405C76.9915 41.6377 75.7301 40.7508 74.2922 40.3061L65.5903 37.4799C63.4855 36.7795 61.5726 35.5977 60.0047 34.0286C58.4364 32.4595 57.2553 30.5462 56.5562 28.4408L53.6903 19.6299C53.1905 18.2266 52.2663 17.0138 51.0455 16.16C49.8243 15.3063 48.3681 14.854 46.8785 14.866C45.3888 14.878 43.9399 15.3536 42.7331 16.2269C41.5262 17.1002 40.6214 18.3278 40.1442 19.739L37.2535 28.6243C36.5564 30.6685 35.4043 32.5276 33.884 34.0616C32.3638 35.5957 30.515 36.7644 28.4773 37.4799L19.6663 40.3111C18.6182 40.6777 17.6697 41.2829 16.8958 42.0791C16.1219 42.8753 15.5438 43.8406 15.2072 44.8986C14.8705 45.9567 14.7845 47.0786 14.9561 48.1755C15.1276 49.2725 15.5519 50.3145 16.1955 51.2194C17.0725 52.454 18.3165 53.3807 19.7506 53.8671L28.4475 56.6884C30.5579 57.3945 32.4746 58.583 34.0455 60.1592C34.4672 60.5777 34.8614 61.0235 35.2256 61.493C36.2131 62.7713 36.976 64.2082 37.4816 65.7423L40.3475 74.5434C40.8358 75.9451 41.7493 77.1599 42.9609 78.0172ZM80.9745 103.044C80.0299 102.371 79.3189 101.419 78.9416 100.322L77.3153 95.3287C76.9989 94.3792 76.4679 93.5154 75.7633 92.8049C75.0567 92.0964 74.194 91.5633 73.2445 91.248L68.3308 89.6465C67.1884 89.2632 66.1972 88.5269 65.4996 87.5441C64.8188 86.5911 64.4548 85.4482 64.4583 84.2766C64.4598 83.0975 64.8292 81.9486 65.5144 80.9892C66.1952 80.0248 67.1636 79.3009 68.2812 78.9216L73.2693 77.3052C74.1965 76.9759 75.0359 76.4389 75.7236 75.7349C76.4114 75.0313 76.9285 74.1789 77.2359 73.2443L78.8424 68.3256C79.2203 67.214 79.9343 66.2471 80.8858 65.5584C81.8373 64.8702 82.9787 64.4938 84.1533 64.4824C85.3274 64.471 86.4763 64.825 87.4407 65.4944C88.4056 66.1643 89.1379 67.1173 89.5376 68.2215L91.1688 73.2492C91.4882 74.1918 92.0217 75.0476 92.7268 75.7497C93.4323 76.4513 94.2906 76.9804 95.2347 77.2952L100.153 78.8968C101.287 79.2513 102.28 79.9539 102.993 80.9049C103.705 81.8559 104.1 83.0068 104.121 84.1943C104.143 85.3823 103.79 86.547 103.112 87.5228C102.435 88.4986 101.467 89.2364 100.347 89.6316L95.319 91.2629C94.3764 91.5842 93.5201 92.1167 92.815 92.8198C92.1094 93.5278 91.5779 94.3901 91.2631 95.3386L89.6665 100.242C89.2822 101.384 88.5439 102.375 87.5592 103.069C86.6072 103.753 85.4643 104.121 84.2916 104.12C83.1002 104.12 81.9394 103.743 80.9745 103.044Z" fill="white"/>
</svg>
