<svg width="112" height="91" viewBox="0 0 112 91" fill="none" xmlns="http://www.w3.org/2000/svg">
<path d="M1 1H110L1 89V1Z" fill="#3576EC" stroke="#3576EC"/>
<path d="M26.085 52.7068L14.8259 38.817L20.0089 34.6156C20.9535 33.8499 21.9274 33.3488 22.9304 33.1125C23.9357 32.8536 24.9105 32.8873 25.8547 33.2136C26.7887 33.5275 27.6336 34.1505 28.3892 35.0827C29.1348 36.0025 29.5633 36.963 29.6747 37.9643C29.7884 38.9431 29.6259 39.8987 29.1871 40.8311C28.7483 41.7635 28.0566 42.6126 27.112 43.3783L24.4645 45.5243L28.6206 50.6514L26.085 52.7068ZM22.651 43.287L25.3357 41.1108C25.7956 40.738 26.1228 40.3286 26.3173 39.8825C26.5018 39.424 26.5563 38.9577 26.4808 38.4834C26.4053 38.0091 26.1962 37.5606 25.8537 37.138C25.501 36.703 25.1055 36.4057 24.6672 36.2461C24.2188 36.0741 23.7563 36.037 23.2797 36.1351C22.7929 36.2207 22.3196 36.4498 21.8597 36.8226L19.175 38.9989L22.651 43.287ZM38.1745 42.907L26.9154 29.0172L32.0798 24.8309C33.0244 24.0652 33.9982 23.5642 35.0012 23.3278C36.0066 23.069 36.9813 23.1027 37.9255 23.429C38.8596 23.7428 39.7045 24.3658 40.4601 25.298C41.2359 26.2551 41.6659 27.2556 41.7501 28.2996C41.8467 29.3335 41.6406 30.3243 41.132 31.2722L48.8389 34.2624L45.9677 36.5898L37.6139 33.2589L40.0404 32.8984L36.554 35.7245L40.7101 40.8516L38.1745 42.907ZM34.7405 33.4872L37.4066 31.3261C37.8664 30.9533 38.1937 30.5439 38.3882 30.0979C38.5727 29.6394 38.6271 29.173 38.5516 28.6987C38.4761 28.2244 38.2671 27.776 37.9245 27.3534C37.5719 26.9184 37.1764 26.621 36.7381 26.4614C36.2897 26.2894 35.8272 26.2524 35.3505 26.3504C34.8638 26.436 34.3905 26.6652 33.9306 27.038L31.2645 29.1991L34.7405 33.4872ZM57.5244 27.5927C56.5052 28.4188 55.4082 29.0094 54.2336 29.3643C53.0589 29.7191 51.8802 29.8404 50.6976 29.7281C49.5149 29.6158 48.3845 29.2757 47.3063 28.7079C46.2305 28.1176 45.2795 27.3128 44.4534 26.2936C43.6171 25.262 43.0266 24.165 42.6818 23.0028C42.337 21.8406 42.232 20.6693 42.3668 19.489C42.5017 18.3087 42.8693 17.1868 43.4696 16.1235C44.0599 15.0477 44.8709 14.0916 45.9026 13.2554C46.9342 12.4191 48.0373 11.8236 49.212 11.4687C50.3867 11.1138 51.5653 10.9925 52.748 11.1049C53.9206 11.2048 55.0398 11.5437 56.1055 12.1215C57.1836 12.6893 58.1408 13.489 58.9771 14.5207C59.8033 15.5399 60.3876 16.6419 60.73 17.8266C61.0624 18.9989 61.1612 20.1752 61.0264 21.3555C60.8915 22.5359 60.5289 23.6639 59.9386 24.7397C59.3608 25.8054 58.556 26.7564 57.5244 27.5927ZM55.6504 25.2808C56.334 24.7267 56.866 24.0998 57.2463 23.4002C57.6165 22.6881 57.8366 21.9433 57.9066 21.1657C57.989 20.378 57.9002 19.5952 57.6404 18.8173C57.3929 18.0292 56.9871 17.2872 56.4229 16.5911C55.8586 15.8951 55.2217 15.3507 54.512 14.958C53.8046 14.5427 53.0571 14.2939 52.2695 14.2115C51.4842 14.1066 50.7099 14.1678 49.9467 14.3951C49.1836 14.6224 48.4602 15.0131 47.7766 15.5673C47.1054 16.1113 46.5796 16.7332 46.1993 17.4328C45.819 18.1324 45.5927 18.8823 45.5203 19.6823C45.4504 20.4599 45.5391 21.2427 45.7866 22.0308C46.024 22.8064 46.4248 23.5422 46.989 24.2383C47.5532 24.9343 48.1952 25.4849 48.9149 25.8901C49.6347 26.2953 50.3822 26.5441 51.1574 26.6366C51.9451 26.719 52.7256 26.6527 53.4988 26.4379C54.262 26.2105 54.9792 25.8249 55.6504 25.2808Z" fill="#DBFF60"/>
</svg>
