<svg width="139" height="147" viewBox="0 0 139 147" fill="none" xmlns="http://www.w3.org/2000/svg">
<rect width="139" height="147" rx="20" fill="#3576EC"/>
<path d="M42.9274 81.8711C40.6001 84.9256 39.0002 86.9619 39.0002 86.9619C37.982 87.98 37.982 89.7254 39.0002 90.7436L59.7996 111.543C60.8178 112.561 62.5632 112.561 63.5813 111.543C63.5813 111.543 65.6176 110.234 69.1085 107.47" stroke="#DBFF60" stroke-width="4"/>
<path d="M62.7082 101.071L55.8721 107.762" stroke="#DBFF60" stroke-width="4"/>
<path d="M56.0179 94.3804L49.3271 101.217" stroke="#DBFF60" stroke-width="4"/>
<path d="M49.4722 87.8354L42.7815 94.5262" stroke="#DBFF60" stroke-width="4"/>
<path d="M80.89 64.7082C82.7808 66.5991 99.6531 86.9622 99.6531 86.9622C100.671 87.9803 100.671 89.7257 99.6531 90.7439L78.8537 111.543C77.8355 112.561 76.0901 112.561 75.072 111.543C75.072 111.543 62.8541 103.107 45.8364 86.0895C39.2911 79.5442 36.3821 71.108 37.4003 70.0899L58.1997 49.2905C58.927 48.5632 64.0177 49.7268 68.6721 52.054" stroke="#DBFF60" stroke-width="4" stroke-linecap="round"/>
<path d="M96.1618 82.0165C100.234 76.4894 101.98 70.9623 101.107 70.0896L80.3076 49.2901C79.2895 48.272 69.9807 50.1628 63.2899 56.8536C60.5264 59.6171 54.272 63.9806 51.2175 71.1077C51.2175 71.1077 52.8175 73.8713 57.0356 72.2713C64.0172 69.6532 68.8171 67.0351 68.8171 67.0351C68.8171 67.0351 76.0896 69.9441 80.5985 64.8533" stroke="#DBFF60" stroke-width="4" stroke-linecap="round"/>
<path d="M62.1263 41.4362C63.1444 42.4543 63.1444 44.1997 62.1263 45.2179L35.2179 72.1263C34.1997 73.1444 32.4543 73.1444 31.4362 72.1263L25.7636 66.4537C24.7455 65.4355 24.7455 63.6901 25.7636 62.672L52.672 35.7636C53.6901 34.7455 55.4355 34.7455 56.4537 35.7636L62.1263 41.4362Z" stroke="#DBFF60" stroke-width="4"/>
<path d="M76.9623 42.0192C75.9442 43.0373 75.9442 44.7828 76.9623 45.8009L104.016 72.8547C105.034 73.8729 106.78 73.8729 107.798 72.8547L113.47 67.1821C114.489 66.164 114.489 64.4186 113.47 63.4004L86.4166 36.3466C85.3985 35.3285 83.6531 35.3285 82.6349 36.3466L76.9623 42.0192Z" stroke="#DBFF60" stroke-width="4"/>
<path d="M65.6167 90.8887L82.6344 107.761" stroke="#DBFF60" stroke-width="4"/>
<path d="M72.3083 84.1982L89.1806 101.216" stroke="#DBFF60" stroke-width="4"/>
<path d="M78.8533 77.6533L95.7255 94.5256" stroke="#DBFF60" stroke-width="4"/>
</svg>
