<svg width="46" height="46" viewBox="0 0 46 46" fill="none" xmlns="http://www.w3.org/2000/svg">
<path fill-rule="evenodd" clip-rule="evenodd" d="M9.91366 23C9.91366 21.5061 10.1616 20.0736 10.6047 18.7303L2.85302 12.811C1.34221 15.8783 0.491211 19.3348 0.491211 23C0.491211 26.6624 1.34149 30.1164 2.84979 33.1818L10.5972 27.2511C10.1584 25.9138 9.91366 24.4868 9.91366 23Z" fill="#FBBC05"/>
<path fill-rule="evenodd" clip-rule="evenodd" d="M23.5234 9.40916C26.7689 9.40916 29.7004 10.5592 32.0036 12.4408L38.7038 5.75C34.6209 2.19542 29.3863 0 23.5234 0C14.4212 0 6.59831 5.20519 2.85254 12.811L10.6039 18.7303C12.39 13.3087 17.4813 9.40916 23.5234 9.40916Z" fill="#EA4335"/>
<path fill-rule="evenodd" clip-rule="evenodd" d="M23.5234 36.5909C17.4816 36.5909 12.3904 32.6913 10.6043 27.2698L2.85254 33.188C6.5983 40.7949 14.4212 46 23.5234 46C29.1412 46 34.5048 44.0052 38.5302 40.2677L31.1724 34.5795C29.0963 35.8872 26.4818 36.5909 23.5234 36.5909Z" fill="#34A853"/>
<path fill-rule="evenodd" clip-rule="evenodd" d="M45.5089 23C45.5089 21.6409 45.2994 20.1772 44.9853 18.8184H23.5234V27.7046H35.8773C35.2595 30.7345 33.5784 33.0636 31.1724 34.5795L38.5302 40.2677C42.7586 36.3433 45.5089 30.497 45.5089 23Z" fill="#4285F4"/>
</svg>
