<svg width="160" height="160" viewBox="0 0 160 160" fill="none" xmlns="http://www.w3.org/2000/svg">
<g filter="url(#filter0_d_307_100)">
<circle cx="80" cy="76" r="76" fill="white"/>
</g>
<path d="M85.1229 74.8401C87.8673 77.5845 87.8673 82.0372 85.1229 84.7748C82.3785 87.5192 77.9326 87.5192 75.1882 84.7748C72.4438 82.0372 72.4438 77.5845 75.1882 74.8401C77.9326 72.0957 82.3785 72.0957 85.1229 74.8401ZM95.0576 64.9054C93.6854 63.5332 91.4625 63.5332 90.0903 64.9054C88.7181 66.2776 88.7181 68.5005 90.0903 69.8727C92.7455 72.5212 94.2069 76.0544 94.2069 79.8074C94.2069 83.5604 92.7455 87.0869 90.0903 89.7421C88.7181 91.1143 88.7181 93.3373 90.0903 94.7095C90.7764 95.3956 91.6752 95.7388 92.5738 95.7388C93.4729 95.7388 94.3715 95.3958 95.0576 94.7095C99.0368 90.7301 101.232 85.4403 101.232 79.8074C101.232 74.1746 99.037 68.8847 95.0576 64.9054ZM104.999 54.9639C103.627 53.5917 101.404 53.5917 100.032 54.9639C98.6596 56.3361 98.6596 58.559 100.032 59.9312C110.989 70.8882 110.989 88.7199 100.032 99.6769C98.6596 101.049 98.6596 103.272 100.032 104.644C100.718 105.33 101.617 105.673 102.515 105.673C103.414 105.673 104.313 105.331 104.999 104.644C118.694 90.9497 118.694 68.6652 104.999 54.9639ZM114.934 45.0291C113.562 43.657 111.339 43.657 109.967 45.0291C108.594 46.4013 108.594 48.6243 109.967 49.9965C126.399 66.4286 126.399 93.1797 109.967 109.619C108.594 110.991 108.594 113.214 109.967 114.586C110.653 115.272 111.551 115.615 112.45 115.615C113.349 115.615 114.248 115.272 114.934 114.586C134.11 95.4024 134.11 64.2057 114.934 45.0291ZM70.2209 64.9054C68.8487 63.5332 66.6257 63.5332 65.2535 64.9054C61.2741 68.8847 59.0786 74.1746 59.0786 79.8074C59.0786 85.4403 61.2741 90.7301 65.2535 94.7095C65.9396 95.3956 66.8385 95.7388 67.7373 95.7388C68.6361 95.7388 69.535 95.3958 70.2211 94.7095C71.5933 93.3373 71.5933 91.1143 70.2211 89.7421C67.5656 87.0869 66.1043 83.5604 66.1043 79.8074C66.1043 76.0544 67.5656 72.521 70.2209 69.8727C71.5931 68.5005 71.5931 66.2776 70.2209 64.9054ZM60.2793 59.9312C61.6515 58.559 61.6515 56.3361 60.2793 54.9639C58.9072 53.5917 56.6842 53.5917 55.312 54.9639C41.6175 68.6652 41.6175 90.9497 55.312 104.644C55.9981 105.33 56.8969 105.673 57.7958 105.673C58.6946 105.673 59.5935 105.331 60.2796 104.644C61.6518 103.272 61.6518 101.049 60.2796 99.6769C49.3224 88.7199 49.3224 70.8882 60.2793 59.9312ZM50.3446 49.9965C51.7168 48.6243 51.7168 46.4013 50.3446 45.0291C48.9724 43.657 46.7495 43.657 45.3773 45.0291C26.2076 64.2057 26.2076 95.4026 45.3773 114.586C46.0634 115.272 46.9622 115.615 47.8611 115.615C48.7599 115.615 49.6588 115.272 50.3449 114.586C51.7171 113.214 51.7171 110.991 50.3449 109.619C33.9125 93.1794 33.9125 66.4286 50.3446 49.9965Z" fill="#193D5B"/>
<defs>
<filter id="filter0_d_307_100" x="0" y="0" width="160" height="160" filterUnits="userSpaceOnUse" color-interpolation-filters="sRGB">
<feFlood flood-opacity="0" result="BackgroundImageFix"/>
<feColorMatrix in="SourceAlpha" type="matrix" values="0 0 0 0 0 0 0 0 0 0 0 0 0 0 0 0 0 0 127 0" result="hardAlpha"/>
<feOffset dy="4"/>
<feGaussianBlur stdDeviation="2"/>
<feComposite in2="hardAlpha" operator="out"/>
<feColorMatrix type="matrix" values="0 0 0 0 0 0 0 0 0 0 0 0 0 0 0 0 0 0 0.25 0"/>
<feBlend mode="normal" in2="BackgroundImageFix" result="effect1_dropShadow_307_100"/>
<feBlend mode="normal" in="SourceGraphic" in2="effect1_dropShadow_307_100" result="shape"/>
</filter>
</defs>
</svg>
