<svg width="42" height="42" viewBox="0 0 42 42" fill="none" xmlns="http://www.w3.org/2000/svg">
<path d="M0 2.8V39.2C0 40.74 1.26 42 2.8 42H39.2C40.74 42 42 40.74 42 39.2V2.8C42 1.26 40.74 0 39.2 0H2.8C1.26 0 0 1.26 0 2.8ZM11.97 35H7V15.68H11.97V35ZM9.52 11.83C8.12 11.83 7 10.78 7 9.45C7 8.12 8.12 7.07 9.52 7.07C10.92 7.07 12.04 8.12 12.04 9.45C11.97 10.78 10.85 11.83 9.52 11.83ZM35 35H30.03V25.34C30.03 23.31 29.96 21.98 29.75 21.35C29.54 20.72 29.19 20.3 28.77 19.95C28.28 19.6 27.72 19.46 27.09 19.46C26.25 19.46 25.48 19.67 24.85 20.16C24.15 20.65 23.73 21.28 23.45 22.05C23.17 22.82 23.1 24.29 23.1 26.39V35H17.08V15.68H22.05V18.55C23.73 16.38 25.9 15.26 28.49 15.26C29.61 15.26 30.66 15.47 31.64 15.89C32.55 16.31 33.32 16.8 33.81 17.43C34.3 18.06 34.65 18.76 34.79 19.6C35 20.37 35.07 21.56 35.07 23.03V35H35Z" fill="#0077B5"/>
</svg>
