<svg width="160" height="160" viewBox="0 0 160 160" fill="none" xmlns="http://www.w3.org/2000/svg">
<g filter="url(#filter0_d_307_102)">
<circle cx="80" cy="76" r="76" fill="white"/>
</g>
<path d="M107.881 44.0003C102.68 44.0003 98.4487 48.2313 98.4487 53.4325C98.4487 57.0612 100.511 60.2123 103.523 61.7892C97.9197 74.1393 90.5801 87.2796 87.9281 87.9249C87.2971 88.0769 86.9748 87.9142 86.7429 87.733C86.0967 87.2233 84.5907 85.1646 84.5907 77.0465C84.5907 68.9622 84.5907 63.1209 79.0978 63.1209C73.8045 63.1209 68.6142 72.3534 65.992 77.857C63.4105 83.2712 59.1187 93.9921 57.5369 97.9847C56.5629 97.6438 55.5211 97.449 54.4321 97.449C49.2309 97.449 45 101.68 45 106.881C45 112.082 49.2309 116.313 54.4321 116.313C59.6334 116.313 63.8643 112.082 63.8643 106.881C63.8643 103.903 62.4735 101.248 60.3114 99.5178C61.735 95.9229 66.2362 84.6491 68.8291 79.211C72.4612 71.5889 76.6846 66.2647 79.0978 66.2647C81.1382 66.2647 81.4466 68.6934 81.4466 77.0463C81.4466 84.2248 82.512 88.4051 84.801 90.2043C85.891 91.0594 87.2251 91.3312 88.6712 90.9797C93.9165 89.704 103.109 70.3596 106.54 62.7577C106.979 62.8206 107.425 62.8643 107.881 62.8643C113.082 62.8643 117.313 58.6334 117.313 53.4321C117.313 48.2309 113.082 44.0003 107.881 44.0003ZM54.432 113.169C50.9639 113.169 48.1439 110.349 48.1439 106.881C48.1439 103.413 50.9639 100.593 54.432 100.593C57.9 100.593 60.7201 103.413 60.7201 106.881C60.7201 110.349 57.9 113.169 54.432 113.169ZM107.881 59.7206C104.413 59.7206 101.593 56.9005 101.593 53.4325C101.593 49.9644 104.413 47.1444 107.881 47.1444C111.349 47.1444 114.169 49.9644 114.169 53.4325C114.169 56.9005 111.349 59.7206 107.881 59.7206Z" fill="#193D5B"/>
<defs>
<filter id="filter0_d_307_102" x="0" y="0" width="160" height="160" filterUnits="userSpaceOnUse" color-interpolation-filters="sRGB">
<feFlood flood-opacity="0" result="BackgroundImageFix"/>
<feColorMatrix in="SourceAlpha" type="matrix" values="0 0 0 0 0 0 0 0 0 0 0 0 0 0 0 0 0 0 127 0" result="hardAlpha"/>
<feOffset dy="4"/>
<feGaussianBlur stdDeviation="2"/>
<feComposite in2="hardAlpha" operator="out"/>
<feColorMatrix type="matrix" values="0 0 0 0 0 0 0 0 0 0 0 0 0 0 0 0 0 0 0.25 0"/>
<feBlend mode="normal" in2="BackgroundImageFix" result="effect1_dropShadow_307_102"/>
<feBlend mode="normal" in="SourceGraphic" in2="effect1_dropShadow_307_102" result="shape"/>
</filter>
</defs>
</svg>
