<svg width="227" height="59" viewBox="0 0 227 59" fill="none" xmlns="http://www.w3.org/2000/svg">
<path d="M39.0449 45.3376V13.7337H46.1812V20.7633L45.601 19.7175C46.3359 17.355 47.477 15.709 49.0241 14.7794C50.61 13.8499 52.5053 13.3851 54.71 13.3851H56.5666V20.1242H53.8397C51.6737 20.1242 49.9331 20.802 48.618 22.1576C47.3029 23.4744 46.6454 25.3334 46.6454 27.7347V45.3376H39.0449ZM76.1782 46.0348C73.0839 46.0348 70.2603 45.3183 67.7075 43.8853C65.1933 42.4522 63.182 40.4964 61.6735 38.0176C60.2037 35.5389 59.4688 32.7116 59.4688 29.5357C59.4688 26.3598 60.2037 23.5325 61.6735 21.0537C63.182 18.575 65.1933 16.6191 67.7075 15.1861C70.2216 13.7531 73.0452 13.0366 76.1782 13.0366C79.2726 13.0366 82.0768 13.7531 84.591 15.1861C87.1051 16.6191 89.0971 18.575 90.5669 21.0537C92.0754 23.4937 92.8296 26.3211 92.8296 29.5357C92.8296 32.7116 92.0754 35.5389 90.5669 38.0176C89.0584 40.4964 87.0471 42.4522 84.5329 43.8853C82.0188 45.3183 79.2339 46.0348 76.1782 46.0348ZM76.1782 39.0633C77.8801 39.0633 79.3693 38.6567 80.6457 37.8433C81.9608 37.03 82.9858 35.9068 83.7207 34.4738C84.4943 33.002 84.881 31.356 84.881 29.5357C84.881 27.6766 84.4943 26.0499 83.7207 24.6557C82.9858 23.2226 81.9608 22.0995 80.6457 21.2861C79.3693 20.4341 77.8801 20.008 76.1782 20.008C74.4377 20.008 72.9098 20.4341 71.5947 21.2861C70.2797 22.0995 69.2353 23.2226 68.4617 24.6557C67.7268 26.0499 67.3594 27.6766 67.3594 29.5357C67.3594 31.356 67.7268 33.002 68.4617 34.4738C69.2353 35.9068 70.2797 37.03 71.5947 37.8433C72.9098 38.6567 74.4377 39.0633 76.1782 39.0633ZM94.2421 58.1767C93.7392 58.1767 93.2171 58.1574 92.6756 58.1186C92.134 58.0799 91.6892 58.0218 91.3411 57.9444V51.3215C92.0373 51.4377 92.7336 51.4958 93.4298 51.4958C95.0543 51.4958 96.3114 51.1085 97.201 50.3339C98.1293 49.598 98.5935 48.4554 98.5935 46.9062V13.7337H106.194V46.9062C106.194 49.3075 105.71 51.3408 104.743 53.0062C103.776 54.7104 102.384 55.9885 100.566 56.8405C98.7869 57.7313 96.6788 58.1767 94.2421 58.1767ZM98.5935 10.1899V2.05652H106.194V10.1899H98.5935ZM128.18 46.0348C124.931 46.0348 122.088 45.2989 119.652 43.8272C117.215 42.3554 115.32 40.3608 113.966 37.8433C112.612 35.3259 111.935 32.5373 111.935 29.4776C111.935 26.3017 112.612 23.4937 113.966 21.0537C115.358 18.575 117.234 16.6191 119.594 15.1861C121.992 13.7531 124.661 13.0366 127.6 13.0366C130.076 13.0366 132.242 13.4432 134.098 14.2566C135.994 15.0699 137.599 16.1931 138.914 17.6261C140.229 19.0591 141.235 20.7052 141.931 22.5642C142.627 24.3845 142.975 26.3598 142.975 28.49C142.975 29.0322 142.937 29.5938 142.859 30.1747C142.821 30.7557 142.724 31.2592 142.569 31.6852H118.201V25.8757H138.276L134.679 28.6061C135.027 26.8246 134.93 25.2366 134.388 23.8423C133.886 22.448 133.035 21.3442 131.836 20.5309C130.675 19.7175 129.263 19.3109 127.6 19.3109C126.014 19.3109 124.603 19.7175 123.365 20.5309C122.127 21.3055 121.18 22.4674 120.522 24.0166C119.903 25.5271 119.671 27.3668 119.826 29.5357C119.671 31.4722 119.922 33.1957 120.58 34.7062C121.276 36.1779 122.282 37.3205 123.597 38.1338C124.951 38.9471 126.498 39.3538 128.238 39.3538C129.979 39.3538 131.449 38.9859 132.648 38.25C133.886 37.5141 134.853 36.5265 135.549 35.2871L141.699 38.3081C141.08 39.8186 140.113 41.1548 138.798 42.3167C137.483 43.4786 135.916 44.3888 134.098 45.0472C132.319 45.7056 130.347 46.0348 128.18 46.0348ZM170.668 46.0348C167.496 46.0348 164.537 45.4732 161.791 44.35C159.045 43.2268 156.646 41.6583 154.596 39.6443C152.546 37.6303 150.941 35.2678 149.781 32.5566C148.659 29.8068 148.098 26.8439 148.098 23.668C148.098 20.4534 148.659 17.4906 149.781 14.7794C150.903 12.0683 152.488 9.70576 154.538 7.69178C156.588 5.6778 158.987 4.12859 161.733 3.04414C164.479 1.92096 167.457 1.35938 170.668 1.35938C173.878 1.35938 176.856 1.92096 179.603 3.04414C182.349 4.16732 184.747 5.7359 186.797 7.74988C188.847 9.72512 190.433 12.0683 191.554 14.7794C192.715 17.4906 193.295 20.4534 193.295 23.668C193.295 26.8439 192.715 29.8068 191.554 32.5566C190.394 35.2678 188.789 37.6303 186.739 39.6443C184.689 41.6583 182.291 43.2268 179.544 44.35C176.837 45.4732 173.878 46.0348 170.668 46.0348ZM170.668 38.831C172.795 38.831 174.748 38.463 176.528 37.7271C178.307 36.9525 179.854 35.8874 181.169 34.5319C182.523 33.1763 183.548 31.569 184.244 29.71C184.979 27.8509 185.346 25.8369 185.346 23.668C185.346 21.4991 184.979 19.5045 184.244 17.6842C183.548 15.8251 182.523 14.2178 181.169 12.8623C179.854 11.468 178.307 10.4029 176.528 9.66703C174.748 8.93115 172.795 8.56321 170.668 8.56321C168.579 8.56321 166.645 8.93115 164.866 9.66703C163.086 10.4029 161.52 11.468 160.166 12.8623C158.851 14.2178 157.826 15.8251 157.091 17.6842C156.356 19.5045 155.989 21.4991 155.989 23.668C155.989 25.8369 156.356 27.8509 157.091 29.71C157.826 31.569 158.851 33.1763 160.166 34.5319C161.52 35.8874 163.086 36.9525 164.866 37.7271C166.645 38.463 168.579 38.831 170.668 38.831ZM180.647 50.5662L167.186 28.0252H175.425L189.06 50.5662H180.647ZM210.929 46.0348C208.492 46.0348 206.365 45.4926 204.547 44.4081C202.767 43.3237 201.394 41.8132 200.427 39.8767C199.499 37.9402 199.035 35.6744 199.035 33.0795V13.7337H206.635V32.4405C206.635 33.7573 206.887 34.9192 207.39 35.9262C207.931 36.8944 208.685 37.669 209.652 38.25C210.658 38.7922 211.78 39.0633 213.017 39.0633C214.255 39.0633 215.358 38.7922 216.325 38.25C217.292 37.669 218.046 36.8751 218.587 35.8681C219.129 34.8611 219.4 33.6605 219.4 32.2662V13.7337H227V45.3376H219.806V39.1214L220.444 40.2252C219.709 42.1618 218.491 43.6141 216.789 44.5824C215.125 45.5507 213.172 46.0348 210.929 46.0348Z" fill="#193D5B"/>
<path fill-rule="evenodd" clip-rule="evenodd" d="M11.7783 0H0V17.6675V41.7595L11.7783 50.3255V34.3295C13.6202 34.9804 15.6023 35.3349 17.6675 35.3349C20.7631 35.3349 23.6727 34.5386 26.2027 33.1401L22.6313 27.0182L22.4214 26.6624C21.0025 27.4139 19.3847 27.8396 17.6675 27.8396C12.0496 27.8396 7.49529 23.2853 7.49529 17.6675C7.49529 12.0496 12.0496 7.49529 17.6675 7.49529C23.2853 7.49529 27.8396 12.0496 27.8396 17.6675C27.8396 20.0625 27.0121 22.2637 25.627 24.0015L25.6981 24.092L25.7007 24.0951L30.434 29.8803C33.47 26.7077 35.3349 22.4053 35.3349 17.6675C35.3349 8.08923 27.7125 0.290689 18.2028 0.00783785V0H17.6675H11.7783Z" fill="#193D5B"/>
<path d="M18.2029 21.4152C20.5684 21.4152 22.486 19.4976 22.486 17.1321C22.486 14.7667 20.5684 12.8491 18.2029 12.8491C15.8375 12.8491 13.9199 14.7667 13.9199 17.1321C13.9199 19.4976 15.8375 21.4152 18.2029 21.4152Z" fill="black"/>
</svg>
