<svg width="160" height="160" viewBox="0 0 160 160" fill="none" xmlns="http://www.w3.org/2000/svg">
<g filter="url(#filter0_d_307_101)">
<circle cx="80" cy="76" r="76" fill="white"/>
</g>
<path d="M47 96.8112C46.9996 99.1054 47.6468 101.353 48.8672 103.296C50.0876 105.238 51.8317 106.797 53.8988 107.793C55.9659 108.788 58.272 109.18 60.552 108.923C62.8319 108.667 64.9931 107.771 66.7868 106.341C68.5805 104.91 69.934 103.003 70.6915 100.837C71.4491 98.6716 71.5799 96.3362 71.0689 94.0996C70.558 91.8631 69.426 89.8161 67.8032 88.1943C66.1805 86.5725 64.1328 85.4416 61.8958 84.9318L61.8958 84.6245C61.8975 83.1886 62.4686 81.812 63.484 80.7967C64.4994 79.7813 65.8761 79.2101 67.3122 79.2083L91.6875 79.2079C93.5898 79.2102 95.4587 78.7086 97.1041 77.754L97.1041 84.9318C94.1827 85.5976 91.6089 87.3162 89.8745 89.7593C88.14 92.2024 87.3664 95.1988 87.7014 98.1761C88.0364 101.153 89.4566 103.903 91.6907 105.9C93.9247 107.896 96.8161 109 99.8125 109C102.809 109 105.7 107.896 107.934 105.9C110.168 103.903 111.589 101.153 111.924 98.1761C112.259 95.1988 111.485 92.2024 109.751 89.7593C108.016 87.3162 105.442 85.5976 102.521 84.9318L102.521 68.0682C105.442 67.4024 108.016 65.6838 109.751 63.2407C111.485 60.7976 112.259 57.8012 111.924 54.8239C111.589 51.8465 110.168 49.097 107.934 47.1004C105.7 45.1037 102.809 44 99.8125 44C96.8161 44 93.9248 45.1037 91.6907 47.1004C89.4566 49.097 88.0364 51.8465 87.7014 54.8239C87.3664 57.8012 88.14 60.7976 89.8745 63.2407C91.6089 65.6838 94.1827 67.4024 97.1041 68.0682L97.1041 68.3754C97.1025 69.8114 96.5313 71.1881 95.5158 72.2034C94.5003 73.2188 93.1236 73.79 91.6875 73.7916L67.3122 73.7921C64.44 73.7955 61.6865 74.9379 59.6557 76.9686C57.6248 78.9994 56.4824 81.7527 56.4792 84.6245L56.4792 84.9318C53.7886 85.5484 51.3865 87.0587 49.6649 89.2163C47.9433 91.3738 47.0039 94.0511 47 96.8112ZM106.583 96.8112C106.583 98.1502 106.186 99.4592 105.442 100.573C104.698 101.686 103.641 102.554 102.404 103.066C101.166 103.578 99.805 103.713 98.4916 103.451C97.1781 103.19 95.9717 102.545 95.0248 101.598C94.0779 100.652 93.433 99.4453 93.1717 98.132C92.9105 96.8187 93.0446 95.4574 93.557 94.2203C94.0695 92.9832 94.9373 91.9258 96.0508 91.1819C97.1643 90.438 98.4733 90.0409 99.8125 90.0409C101.608 90.0429 103.329 90.7569 104.598 92.0261C105.867 93.2953 106.581 95.0162 106.583 96.8112ZM93.0416 56.1888C93.0416 54.8498 93.4388 53.5408 94.1827 52.4275C94.9267 51.3141 95.9842 50.4463 97.2214 49.9339C98.4586 49.4215 99.82 49.2874 101.133 49.5487C102.447 49.8099 103.653 50.4547 104.6 51.4015C105.547 52.3484 106.192 53.5547 106.453 54.868C106.714 56.1813 106.58 57.5426 106.068 58.7797C105.555 60.0168 104.688 61.0742 103.574 61.8181C102.461 62.562 101.152 62.9591 99.8125 62.9591C98.0174 62.9571 96.2964 62.2431 95.027 60.9739C93.7577 59.7046 93.0437 57.9838 93.0416 56.1888ZM59.1875 90.0409C60.5266 90.0409 61.8357 90.438 62.9492 91.1819C64.0626 91.9258 64.9305 92.9832 65.4429 94.2203C65.9554 95.4574 66.0895 96.8187 65.8282 98.132C65.567 99.4453 64.9221 100.652 63.9752 101.598C63.0283 102.545 61.8218 103.19 60.5084 103.451C59.195 103.713 57.8336 103.578 56.5964 103.066C55.3592 102.554 54.3017 101.686 53.5577 100.573C52.8138 99.4592 52.4167 98.1502 52.4167 96.8112C52.4187 95.0162 53.1327 93.2953 54.402 92.0261C55.6714 90.7569 57.3924 90.0429 59.1875 90.0409Z" fill="#193D5B"/>
<defs>
<filter id="filter0_d_307_101" x="0" y="0" width="160" height="160" filterUnits="userSpaceOnUse" color-interpolation-filters="sRGB">
<feFlood flood-opacity="0" result="BackgroundImageFix"/>
<feColorMatrix in="SourceAlpha" type="matrix" values="0 0 0 0 0 0 0 0 0 0 0 0 0 0 0 0 0 0 127 0" result="hardAlpha"/>
<feOffset dy="4"/>
<feGaussianBlur stdDeviation="2"/>
<feComposite in2="hardAlpha" operator="out"/>
<feColorMatrix type="matrix" values="0 0 0 0 0 0 0 0 0 0 0 0 0 0 0 0 0 0 0.25 0"/>
<feBlend mode="normal" in2="BackgroundImageFix" result="effect1_dropShadow_307_101"/>
<feBlend mode="normal" in="SourceGraphic" in2="effect1_dropShadow_307_101" result="shape"/>
</filter>
</defs>
</svg>
