<svg width="139" height="147" viewBox="0 0 139 147" fill="none" xmlns="http://www.w3.org/2000/svg">
<rect width="139" height="147" rx="20" fill="#3576EC"/>
<path d="M69.5526 89.8228C65.0609 89.8228 61.4155 93.4682 61.4155 97.9599C61.4155 102.452 65.061 106.097 69.5526 106.097C74.0442 106.097 77.6897 102.452 77.6897 97.9599C77.6897 93.4682 74.0442 89.8228 69.5526 89.8228ZM113.151 61.3727C102.269 48.4238 86.3774 41 69.5526 41C52.7279 41 36.8386 48.4238 25.9539 61.3727C24.5081 63.0924 24.7306 65.6583 26.453 67.1039C27.2151 67.744 28.1401 68.0588 29.0649 68.0588C30.2258 68.0588 31.3787 67.565 32.1841 66.6076C41.5147 55.5059 55.1362 49.1373 69.5525 49.1373C83.9687 49.1373 97.5902 55.5059 106.921 66.605C107.726 67.5624 108.879 68.0561 110.04 68.0561C110.965 68.0561 111.893 67.7441 112.655 67.1013C114.374 65.6581 114.597 63.0896 113.151 61.3727ZM69.5526 57.2742C57.5341 57.2742 46.1855 62.5768 38.412 71.8234C36.9663 73.5431 37.1886 76.109 38.9111 77.5546C39.6732 78.1947 40.6008 78.5094 41.5258 78.5094C42.6866 78.5094 43.8395 78.0157 44.6423 77.0583C50.8617 69.6563 59.9428 65.4113 69.5528 65.4113C79.1628 65.4113 88.2436 69.6563 94.4658 77.0583C95.2714 78.0185 96.4241 78.5094 97.5822 78.5094C98.5072 78.5094 99.4349 78.1974 100.197 77.5546C101.919 76.109 102.142 73.5404 100.696 71.8234C92.9197 62.577 81.5711 57.2742 69.5526 57.2742ZM69.5526 73.5484C62.3377 73.5484 55.5269 76.7301 50.8671 82.2768C49.4213 83.9965 49.6438 86.5624 51.3662 88.0081C52.1283 88.6481 53.0559 88.9628 53.9809 88.9628C55.1418 88.9628 56.2946 88.4692 57.0975 87.5117C60.2086 83.8093 64.749 81.6854 69.5526 81.6854C74.3562 81.6854 78.8968 83.8093 82.0078 87.5117C82.8134 88.4719 83.9661 88.9628 85.1243 88.9628C86.0493 88.9628 86.9769 88.6509 87.739 88.0081C89.4614 86.5623 89.6838 83.9964 88.2381 82.2768C83.5782 76.7301 76.7674 73.5484 69.5526 73.5484Z" fill="#DBFF60"/>
</svg>
